<svg width="512" height="512" viewBox="0 0 512 512" fill="none" xmlns="http://www.w3.org/2000/svg">
<g id="SVGRepo_bgCarrier" stroke-width="0"></g>
<g id="SVGRepo_tracerCarrier" stroke-linecap="round" stroke-linejoin="round"></g>
<g id="SVGRepo_iconCarrier">
<path d="M80 488V376C80 367.163 87.1634 360 96 360H416C424.837 360 432 367.163 432 376V488" stroke="black" stroke-width="16" stroke-linecap="round" stroke-linejoin="round"></path>
<path d="M16 312C16 299.297 26.2975 288 39 288H473C485.703 288 496 299.297 496 312C496 324.703 485.703 336 473 336H39C26.2975 336 16 324.703 16 312Z" stroke="black" stroke-width="16" stroke-linecap="round" stroke-linejoin="round"></path>
<path d="M464 232C464 181.019 418.981 136 368 136H144C93.0193 136 48 181.019 48 232" stroke="black" stroke-width="16" stroke-linecap="round" stroke-linejoin="round"></path>
<path d="M464 232C464 250.673 450.673 264 432 264H80C61.3269 264 48 250.673 48 232" stroke="black" stroke-width="16" stroke-linecap="round" stroke-linejoin="round"></path>
<path d="M144 136V104C144 77.4903 165.49 56 192 56H320C346.51 56 368 77.4903 368 104V136" stroke="black" stroke-width="16" stroke-linecap="round" stroke-linejoin="round"></path>
<path d="M368 56V24" stroke="black" stroke-width="16" stroke-linecap="round" stroke-linejoin="round"></path>
<path d="M144 56V24" stroke="black" stroke-width="16" stroke-linecap="round" stroke-linejoin="round"></path>
<path d="M144 200H144.5" stroke="black" stroke-width="16" stroke-linecap="round" stroke-linejoin="round"></path>
<path d="M192 200H192.5" stroke="black" stroke-width="16" stroke-linecap="round" stroke-linejoin="round"></path>
<path d="M240 200H240.5" stroke="black" stroke-width="16" stroke-linecap="round" stroke-linejoin="round"></path>
<path d="M288 200H288.5" stroke="black" stroke-width="16" stroke-linecap="round" stroke-linejoin="round"></path>
<path d="M336 200H336.5" stroke="black" stroke-width="16" stroke-linecap="round" stroke-linejoin="round"></path>
<path d="M384 200H384.5" stroke="black" stroke-width="16" stroke-linecap="round" stroke-linejoin="round"></path>
<path d="M128 488V440C128 431.163 135.163 424 144 424H368C376.837 424 384 431.163 384 440V488" stroke="black" stroke-width="16" stroke-linecap="round" stroke-linejoin="round"></path>
<path d="M176 424V376" stroke="black" stroke-width="16" stroke-linecap="round" stroke-linejoin="round"></path>
<path d="M336 424V376" stroke="black" stroke-width="16" stroke-linecap="round" stroke-linejoin="round"></path>
</g>
</svg>